<mxfile host="app.diagrams.net" modified="2024-06-03T12:07:59.241Z" agent="Mozilla/5.0 (Windows NT 10.0; Win64; x64; rv:125.0) Gecko/20100101 Firefox/125.0" etag="xmfFSPjFUJ9xwNtII3X8" version="23.1.6" type="device">
  <diagram name="Page-1" id="C61oasr5NrqMEeh1zQuI">
    <mxGraphModel dx="1022" dy="530" grid="1" gridSize="10" guides="1" tooltips="1" connect="1" arrows="1" fold="1" page="1" pageScale="1" pageWidth="850" pageHeight="1100" math="0" shadow="0">
      <root>
        <mxCell id="0" />
        <mxCell id="1" parent="0" />
        <mxCell id="TQBx6E3UQaq9trVsnw20-11" style="edgeStyle=orthogonalEdgeStyle;rounded=0;orthogonalLoop=1;jettySize=auto;html=1;exitX=1;exitY=0.5;exitDx=0;exitDy=0;entryX=0;entryY=0.75;entryDx=0;entryDy=0;" edge="1" parent="1" source="TQBx6E3UQaq9trVsnw20-1" target="TQBx6E3UQaq9trVsnw20-2">
          <mxGeometry relative="1" as="geometry">
            <Array as="points">
              <mxPoint x="420" y="350" />
              <mxPoint x="420" y="265" />
            </Array>
          </mxGeometry>
        </mxCell>
        <mxCell id="TQBx6E3UQaq9trVsnw20-14" value="initial track window" style="edgeLabel;html=1;align=center;verticalAlign=middle;resizable=0;points=[];labelBorderColor=default;" vertex="1" connectable="0" parent="TQBx6E3UQaq9trVsnw20-11">
          <mxGeometry x="0.0222" relative="1" as="geometry">
            <mxPoint as="offset" />
          </mxGeometry>
        </mxCell>
        <mxCell id="TQBx6E3UQaq9trVsnw20-1" value="YOLOv8" style="rounded=0;whiteSpace=wrap;html=1;" vertex="1" parent="1">
          <mxGeometry x="240" y="320" width="120" height="60" as="geometry" />
        </mxCell>
        <mxCell id="TQBx6E3UQaq9trVsnw20-19" style="edgeStyle=orthogonalEdgeStyle;rounded=0;orthogonalLoop=1;jettySize=auto;html=1;exitX=0.5;exitY=0;exitDx=0;exitDy=0;entryX=0.5;entryY=1;entryDx=0;entryDy=0;" edge="1" parent="1" source="TQBx6E3UQaq9trVsnw20-2" target="TQBx6E3UQaq9trVsnw20-15">
          <mxGeometry relative="1" as="geometry" />
        </mxCell>
        <mxCell id="TQBx6E3UQaq9trVsnw20-22" style="edgeStyle=orthogonalEdgeStyle;rounded=0;orthogonalLoop=1;jettySize=auto;html=1;exitX=1;exitY=0.5;exitDx=0;exitDy=0;entryX=0;entryY=0.5;entryDx=0;entryDy=0;" edge="1" parent="1" source="TQBx6E3UQaq9trVsnw20-2" target="TQBx6E3UQaq9trVsnw20-20">
          <mxGeometry relative="1" as="geometry" />
        </mxCell>
        <mxCell id="TQBx6E3UQaq9trVsnw20-2" value="Camshift" style="whiteSpace=wrap;html=1;" vertex="1" parent="1">
          <mxGeometry x="460" y="220" width="120" height="60" as="geometry" />
        </mxCell>
        <mxCell id="TQBx6E3UQaq9trVsnw20-10" style="edgeStyle=orthogonalEdgeStyle;rounded=0;orthogonalLoop=1;jettySize=auto;html=1;exitX=0.5;exitY=1;exitDx=0;exitDy=0;exitPerimeter=0;entryX=0;entryY=0.5;entryDx=0;entryDy=0;" edge="1" parent="1" source="TQBx6E3UQaq9trVsnw20-4" target="TQBx6E3UQaq9trVsnw20-2">
          <mxGeometry relative="1" as="geometry" />
        </mxCell>
        <mxCell id="TQBx6E3UQaq9trVsnw20-13" value="feed all frames captured&lt;br&gt;&amp;nbsp;while yolo ran" style="edgeLabel;html=1;align=center;verticalAlign=middle;resizable=0;points=[];labelBorderColor=default;" vertex="1" connectable="0" parent="TQBx6E3UQaq9trVsnw20-10">
          <mxGeometry x="-0.0545" y="-1" relative="1" as="geometry">
            <mxPoint as="offset" />
          </mxGeometry>
        </mxCell>
        <mxCell id="TQBx6E3UQaq9trVsnw20-4" value="frame&lt;br&gt;buffer" style="shape=cylinder3;whiteSpace=wrap;html=1;boundedLbl=1;backgroundOutline=1;size=15;" vertex="1" parent="1">
          <mxGeometry x="240" y="90" width="60" height="130" as="geometry" />
        </mxCell>
        <mxCell id="TQBx6E3UQaq9trVsnw20-7" style="edgeStyle=orthogonalEdgeStyle;rounded=0;orthogonalLoop=1;jettySize=auto;html=1;exitX=1;exitY=0.75;exitDx=0;exitDy=0;entryX=0;entryY=0.5;entryDx=0;entryDy=0;" edge="1" parent="1" source="TQBx6E3UQaq9trVsnw20-6" target="TQBx6E3UQaq9trVsnw20-1">
          <mxGeometry relative="1" as="geometry" />
        </mxCell>
        <mxCell id="TQBx6E3UQaq9trVsnw20-6" value="Frame capture" style="rounded=0;whiteSpace=wrap;html=1;" vertex="1" parent="1">
          <mxGeometry x="60" y="110" width="120" height="60" as="geometry" />
        </mxCell>
        <mxCell id="TQBx6E3UQaq9trVsnw20-8" style="edgeStyle=orthogonalEdgeStyle;rounded=0;orthogonalLoop=1;jettySize=auto;html=1;exitX=1;exitY=0.75;exitDx=0;exitDy=0;entryX=0.5;entryY=0;entryDx=0;entryDy=0;entryPerimeter=0;" edge="1" parent="1" source="TQBx6E3UQaq9trVsnw20-6" target="TQBx6E3UQaq9trVsnw20-4">
          <mxGeometry relative="1" as="geometry" />
        </mxCell>
        <mxCell id="TQBx6E3UQaq9trVsnw20-21" style="edgeStyle=orthogonalEdgeStyle;rounded=0;orthogonalLoop=1;jettySize=auto;html=1;exitX=1;exitY=0.5;exitDx=0;exitDy=0;entryX=0;entryY=0.25;entryDx=0;entryDy=0;" edge="1" parent="1" source="TQBx6E3UQaq9trVsnw20-15" target="TQBx6E3UQaq9trVsnw20-20">
          <mxGeometry relative="1" as="geometry" />
        </mxCell>
        <mxCell id="TQBx6E3UQaq9trVsnw20-15" value="team detection" style="rounded=0;whiteSpace=wrap;html=1;" vertex="1" parent="1">
          <mxGeometry x="460" y="120" width="120" height="60" as="geometry" />
        </mxCell>
        <mxCell id="TQBx6E3UQaq9trVsnw20-20" value="evaluation +&lt;br&gt;controlling servos" style="rounded=0;whiteSpace=wrap;html=1;" vertex="1" parent="1">
          <mxGeometry x="670" y="180" width="120" height="60" as="geometry" />
        </mxCell>
      </root>
    </mxGraphModel>
  </diagram>
</mxfile>
